# xmcd
#
# Track frame offsets:
#	150
#	13819
#	42911
#	62263
#	85019
#	101337
#	124183
#	149154
#	160607
#	189148
#	207092
#	226662
#	244312
#
# Disc length: 3455 seconds
#
# Revision: 1
# Processed by: cddbd v1.5.2PL0 Copyright (c) Steve Scherf et al.
# Submitted via: audiograbber 1.83.01
#
DISCID=9f0d7d0d
DTITLE=Rhythm Dogs - How Can You do That?
DYEAR=2006
DGENRE=Blues
TTITLE0=Rock Bottom
TTITLE1=Let the Good Times Roll
TTITLE2=Sweet Sixteen
TTITLE3=I Don't Know
TTITLE4=Sell My Monkey
TTITLE5=Juke Joint Woman
TTITLE6=Georgia
TTITLE7=I'll Go Crazy
TTITLE8=Little By Little
TTITLE9=Strange Things
TTITLE10=Snatch It Back
TTITLE11=Love Her With A Feeling
TTITLE12=How Can You Do That
EXTD=
EXTT0=
EXTT1=
EXTT2=
EXTT3=
EXTT4=
EXTT5=
EXTT6=
EXTT7=
EXTT8=
EXTT9=
EXTT10=
EXTT11=
EXTT12=
PLAYORDER=
